<?xml version="1.0" encoding="UTF-8"?>
<svg version="1.1" xmlns="http://www.w3.org/2000/svg" width="1000" height="1000">
<path d="M0 0 C330 0 660 0 1000 0 C1000 330 1000 660 1000 1000 C670 1000 340 1000 0 1000 C0 670 0 340 0 0 Z " fill="#FFFEFE" transform="translate(0,0)"/>
<path d="M0 0 C0.80453613 -0.00100708 1.60907227 -0.00201416 2.43798828 -0.00305176 C17.23881313 0.0093724 31.66183771 1.03131092 46.3125 3.25 C47.22273926 3.37858398 48.13297852 3.50716797 49.07080078 3.63964844 C77.66296091 7.77764105 105.99535523 19.18867456 129.3125 36.25 C130.16328125 36.8584375 131.0140625 37.466875 131.890625 38.09375 C165.96118838 63.81589719 183.60086177 101.95239546 190.3125 143.25 C191.14432635 149.8387584 191.47156418 156.35517744 191.48046875 162.9921875 C191.48379715 163.88181183 191.48712555 164.77143616 191.49055481 165.6880188 C191.49557844 167.55519093 191.49796456 169.4223719 191.49780273 171.28955078 C191.49998927 174.11115614 191.51819432 176.93236975 191.53710938 179.75390625 C191.56646492 189.14022493 191.27215672 198.03122937 189.3125 207.25 C189.07804327 208.69124239 188.85204983 210.13390129 188.63671875 211.578125 C187.02797078 221.4872229 184.59506409 230.77120962 181.3125 240.25 C181.07047852 240.96849121 180.82845703 241.68698242 180.57910156 242.42724609 C167.46250125 281.16088755 144.98789055 314.69505217 117.59765625 344.7421875 C116.0090598 346.48557027 114.43449204 348.24179779 112.87109375 350.0078125 C102.01175282 362.14567494 90.08249755 373.14782923 77.3125 383.25 C76.20948705 384.15448408 75.10801357 385.06084769 74.0078125 385.96875 C52.74397239 403.41622752 29.52987911 418.2665382 5.3125 431.25 C4.4467334 431.71905762 3.5809668 432.18811523 2.68896484 432.67138672 C-31.84483901 451.33847406 -69.30591479 466.45516732 -107.375 476.25 C-108.03070984 476.41953186 -108.68641968 476.58906372 -109.36199951 476.76373291 C-127.58802783 481.4494239 -146.0869704 484.46294059 -164.6875 487.25 C-165.64317871 487.39453613 -166.59885742 487.53907227 -167.58349609 487.68798828 C-181.51227167 489.72312247 -195.25549837 490.53047489 -209.3125 490.5 C-210.07056946 490.49913391 -210.82863892 490.49826782 -211.60968018 490.49737549 C-224.38641421 490.45956732 -224.38641421 490.45956732 -229.85522461 489.74633789 C-238.1271827 488.67499363 -246.03081657 489.35989049 -254.25 490.5625 C-255.19512451 490.69712646 -256.14024902 490.83175293 -257.11401367 490.97045898 C-259.97386186 491.38457751 -262.8309951 491.8134511 -265.6875 492.25 C-266.99944336 492.45012695 -266.99944336 492.45012695 -268.33789062 492.65429688 C-270.72780706 493.02639076 -273.11424794 493.41465951 -275.5 493.8125 C-276.21679932 493.92698486 -276.93359863 494.04146973 -277.67211914 494.15942383 C-279.35746911 494.45377075 -281.02585622 494.84258798 -282.6875 495.25 C-283.0175 495.91 -283.3475 496.57 -283.6875 497.25 C-289.2975 497.25 -294.9075 497.25 -300.6875 497.25 C-301.0175 496.59 -301.3475 495.93 -301.6875 495.25 C-304.05267034 494.27090205 -306.40826119 493.37128702 -308.8125 492.5 C-314.75045289 490.23994954 -319.26581459 487.91309927 -323.6875 483.25 C-325.110625 482.0125 -325.110625 482.0125 -326.5625 480.75 C-329.01660897 477.86281298 -329.42708664 475.98259147 -329.6875 472.25 C-329.0275 472.518125 -328.3675 472.78625 -327.6875 473.0625 C-326.6975 473.454375 -325.7075 473.84625 -324.6875 474.25 C-324.08292969 474.49105469 -323.47835937 474.73210937 -322.85546875 474.98046875 C-322.20191406 475.23441406 -321.54835938 475.48835938 -320.875 475.75 C-320.27042969 475.9871875 -319.66585937 476.224375 -319.04296875 476.46875 C-312.21358703 478.7338849 -306.34236295 479.52648733 -299.1875 479.375 C-297.95386719 479.36146484 -297.95386719 479.36146484 -296.6953125 479.34765625 C-294.69257917 479.32436865 -292.68999846 479.28850959 -290.6875 479.25 C-290.6875 478.59 -290.6875 477.93 -290.6875 477.25 C-288.06068962 475.56458987 -285.39411825 474.02561442 -282.66015625 472.5234375 C-278.39158903 470.04862774 -276.14812973 467.49226493 -273.6875 463.25 C-273.275 462.610625 -272.8625 461.97125 -272.4375 461.3125 C-271.26447001 458.08666753 -271.27000496 455.64960249 -271.6875 452.25 C-273.8602422 449.61983839 -275.63423788 447.77663106 -278.6875 446.25 C-278.6875 445.59 -278.6875 444.93 -278.6875 444.25 C-281.27213502 444.53250662 -283.85481135 444.8256226 -286.4375 445.125 C-287.16710937 445.20363281 -287.89671875 445.28226563 -288.6484375 445.36328125 C-292.42702026 445.80984103 -295.35007079 446.46101768 -298.6875 448.25 C-300.0075 448.25 -301.3275 448.25 -302.6875 448.25 C-302.6875 448.91 -302.6875 449.57 -302.6875 450.25 C-319.51586872 456.95282483 -336.98084029 461.89319123 -354.6875 455.25 C-363.16072487 451.0514182 -370.9033784 440.77466954 -374.6875 432.25 C-372.02657586 432.78218483 -369.99716875 433.58238171 -367.5234375 434.7734375 C-359.16848475 438.38395124 -346.19713737 437.22837308 -337.6875 434.25 C-333.39441052 432.13246262 -330.36382033 430.26448049 -327.6875 426.25 C-327.1461942 422.73151231 -326.98928575 420.33373133 -328.9609375 417.2734375 C-332.94335488 412.54276292 -332.94335488 412.54276292 -338.75 410.9375 C-342.41003075 411.22797863 -343.71640839 411.63638319 -346.8125 413.25 C-354.93767379 417.16006657 -365.29649734 416.11416729 -373.6875 413.25 C-377.41407406 411.70009501 -381.06313809 410.02492116 -384.6875 408.25 C-384.6875 407.59 -384.6875 406.93 -384.6875 406.25 C-385.656875 405.981875 -386.62625 405.71375 -387.625 405.4375 C-388.635625 405.045625 -389.64625 404.65375 -390.6875 404.25 C-391.1825 402.765 -391.1825 402.765 -391.6875 401.25 C-393.70258358 400.51676204 -393.70258358 400.51676204 -395.6875 400.25 C-395.6875 399.59 -395.6875 398.93 -395.6875 398.25 C-396.38875 398.146875 -397.09 398.04375 -397.8125 397.9375 C-401.07887647 397.15640997 -403.7346852 395.82941257 -406.6875 394.25 C-406.6875 393.59 -406.6875 392.93 -406.6875 392.25 C-408.04875 391.87875 -408.04875 391.87875 -409.4375 391.5 C-411.74326195 390.87115583 -413.88455174 390.16591603 -416.0859375 389.2265625 C-427.28785018 384.70086139 -440.90578496 384.8586618 -452.6875 387.25 C-451.32864334 384.00565462 -450.08482586 382.54148595 -447.0546875 380.77734375 C-446.33023438 380.35259766 -445.60578125 379.92785156 -444.859375 379.49023438 C-444.10140625 379.06033203 -443.3434375 378.63042969 -442.5625 378.1875 C-441.46035156 377.5368457 -441.46035156 377.5368457 -440.3359375 376.87304688 C-435.5764691 374.12043179 -430.87510396 372.06538037 -425.6875 370.25 C-424.841875 369.87875 -423.99625 369.5075 -423.125 369.125 C-409.12105356 364.0979423 -392.32710683 367.05931872 -379.06640625 372.82421875 C-373.3726486 375.22678701 -368.27783515 375.43224064 -362.1875 375.4375 C-361.44113281 375.44974609 -360.69476563 375.46199219 -359.92578125 375.47460938 C-355.66425165 375.48592317 -352.61953938 375.05218471 -348.6875 373.25 C-347.6975 373.25 -346.7075 373.25 -345.6875 373.25 C-345.605 372.734375 -345.5225 372.21875 -345.4375 371.6875 C-344.6875 369.25 -344.6875 369.25 -342.625 366.3125 C-339.56497589 361.16406528 -339.8755498 355.02874467 -340.6875 349.25 C-342.53959036 345.11703951 -344.54526336 343.08704343 -348.6875 341.25 C-356.29770906 340.30220839 -363.50310822 340.98138046 -370.69921875 343.59375 C-372.6875 344.25 -372.6875 344.25 -375.6875 344.25 C-374.06055058 335.87490812 -365.99836194 328.50560306 -359.6875 323.25 C-356.77250688 321.59726247 -353.83923556 320.3694325 -350.6875 319.25 C-350.0275 318.92 -349.3675 318.59 -348.6875 318.25 C-342.44735876 317.8050148 -336.51266989 317.84395157 -330.6875 320.25 C-330.1925 321.735 -330.1925 321.735 -329.6875 323.25 C-327.69695124 323.94437747 -325.69494615 324.60610218 -323.6875 325.25 C-321.68134866 326.57405988 -319.68080842 327.90668346 -317.6875 329.25 C-315.46147385 330.01939681 -315.46147385 330.01939681 -313.6875 330.25 C-313.6875 330.91 -313.6875 331.57 -313.6875 332.25 C-305.49686372 331.82735151 -299.03359445 330.89097285 -292.6875 325.25 C-291.79535348 322.57356043 -291.55209789 320.99615622 -291.5625 318.25 C-291.55992187 317.569375 -291.55734375 316.88875 -291.5546875 316.1875 C-291.80981168 312.46568843 -292.68418833 311.25308587 -295.4375 308.6875 C-299.80101682 305.67074763 -304.30841977 305.40877159 -309.46875 304.7578125 C-317.54026021 303.48439463 -323.70094735 299.75977613 -328.6875 293.25 C-328.6875 292.59 -328.6875 291.93 -328.6875 291.25 C-329.3475 291.25 -330.0075 291.25 -330.6875 291.25 C-331.8452506 287.77674819 -331.75616652 284.88932552 -331.6875 281.25 C-330.6975 281.91 -329.7075 282.57 -328.6875 283.25 C-328.6875 283.91 -328.6875 284.57 -328.6875 285.25 C-323.69447779 286.05511672 -318.81210095 286.46094811 -313.75 286.5 C-312.75323242 286.5309375 -312.75323242 286.5309375 -311.73632812 286.5625 C-308.02077915 286.59133064 -305.17806399 286.18470184 -301.734375 284.75390625 C-297.38224496 282.96681252 -293.53773953 282.83172897 -288.875 282.9375 C-288.04081543 282.94587891 -287.20663086 282.95425781 -286.34716797 282.96289062 C-280.9398548 283.06470409 -275.67051716 283.55781597 -270.3125 284.25 C-248.83619227 286.88060412 -226.50645404 285.91125264 -205 284 C-203.70167236 283.89083252 -202.40334473 283.78166504 -201.06567383 283.66918945 C-188.77838401 282.66539126 -188.77838401 282.66539126 -178.84741211 276.14111328 C-177.06800132 273.47524562 -175.52218895 270.75795798 -174 267.9375 C-172.8044917 265.85073448 -171.60515473 263.76615856 -170.40234375 261.68359375 C-169.79374512 260.61608887 -169.18514648 259.54858398 -168.55810547 258.44873047 C-165.57414691 253.34616912 -162.32520324 248.42725401 -159.0625 243.5 C-154.5666252 236.67157103 -150.1371607 229.81301789 -145.8125 222.875 C-138.44678179 211.10475152 -130.54651909 199.69379986 -122.6875 188.25 C-121.69763354 186.80357913 -120.70801388 185.35698931 -119.71875 183.91015625 C-117.05271811 180.01576975 -114.37231701 176.13145345 -111.6875 172.25 C-111.09114746 171.38697266 -110.49479492 170.52394531 -109.88037109 169.63476562 C-101.42165215 157.40235097 -92.86180414 145.25547238 -84.11767578 133.22558594 C-81.97645092 130.26778608 -79.86391687 127.28984159 -77.75 124.3125 C-73.00346618 117.63274562 -68.13155273 111.04633677 -63.24438477 104.46899414 C-62.66744873 103.69031982 -62.0905127 102.91164551 -61.49609375 102.109375 C-60.97845459 101.41295898 -60.46081543 100.71654297 -59.92749023 99.99902344 C-58.63176149 98.2655817 -58.63176149 98.2655817 -57.6875 96.25 C-84.24933927 99.64714331 -110.06970492 105.47443306 -135.6875 113.25 C-137.30011719 113.73291504 -137.30011719 113.73291504 -138.9453125 114.22558594 C-170.05177165 123.55926342 -201.70270404 133.65833461 -230.375 149.1875 C-231.02243164 149.5285376 -231.66986328 149.8695752 -232.33691406 150.22094727 C-234.2902011 151.28400848 -234.2902011 151.28400848 -236.6875 153.25 C-237.3851696 155.81734278 -237.3851696 155.81734278 -237.6875 158.25 C-228.22354214 157.69440894 -218.94024411 156.70929577 -209.5625 155.3125 C-208.39074219 155.14298828 -207.21898437 154.97347656 -206.01171875 154.79882812 C-199.4623128 153.84294923 -192.93165536 152.80974137 -186.41064453 151.67602539 C-177.53288628 150.28713458 -168.65578694 150.10688904 -159.6875 150.25 C-162.25132599 152.81382599 -164.02456066 152.93292394 -167.5625 153.75 C-188.91145367 159.12789928 -209.18496552 167.97659375 -229.25570679 176.86459351 C-235.549877 179.64544458 -241.89389349 182.30199352 -248.25 184.9375 C-249.23709961 185.34742188 -250.22419922 185.75734375 -251.24121094 186.1796875 C-253.72165187 187.20728622 -256.20251985 188.23342923 -258.6875 189.25 C-259.54206787 189.60682861 -260.39663574 189.96365723 -261.27709961 190.33129883 C-267.26226905 192.61248921 -275.40835243 193.59365234 -281.640625 191.63671875 C-286.57992273 189.19928269 -289.531038 185.25798201 -291.6875 180.25 C-297.31628359 154.72576749 -290.58894518 122.48057786 -277.6875 100.25 C-277.20539063 99.39277344 -276.72328125 98.53554688 -276.2265625 97.65234375 C-251.10514305 56.48516217 -179.66994779 36.30728919 -135.6875 23.25 C-135.0275 23.04681152 -134.3675 22.84362305 -133.6875 22.63427734 C-120.86772879 18.68995895 -107.87664795 15.57159553 -94.8125 12.5625 C-93.97978577 12.37031891 -93.14707153 12.17813782 -92.28912354 11.98013306 C-76.97761914 8.45663684 -61.70855598 5.22747652 -46.125 3.125 C-44.92681641 2.95613281 -43.72863281 2.78726563 -42.49414062 2.61328125 C-28.33320252 0.67426331 -14.27346678 0.01254389 0 0 Z " fill="#FF5A5F" transform="translate(600.6875,177.75)"/>
<path d="M0 0 C3.66778393 0.00315811 7.33475638 -0.02039881 11.00244141 -0.0456543 C51.59430769 -0.15468123 96.35693998 6.22690435 126.82958984 35.68139648 C143.97534879 53.12420962 152.73587446 75.71677553 152.85375977 100.11157227 C152.84158641 101.47129288 152.82730822 102.8309961 152.81103516 104.19067383 C152.80605011 104.89421997 152.80106506 105.59776611 152.79592896 106.32263184 C152.48368147 143.9311073 135.47132317 176.25042103 111.43603516 204.31567383 C110.71158203 205.17161133 109.98712891 206.02754883 109.24072266 206.90942383 C98.40013119 219.32296386 86.54990902 231.31188788 73.43603516 241.31567383 C72.54142578 242.03883789 71.64681641 242.76200195 70.72509766 243.50708008 C54.14606089 256.7137406 36.02629317 268.16850666 17.43603516 278.31567383 C16.10886475 279.04197998 16.10886475 279.04197998 14.75488281 279.78295898 C-15.86560553 296.42046486 -48.66251537 309.82867285 -82.50146484 318.31567383 C-83.17307648 318.48487335 -83.84468811 318.65407288 -84.53665161 318.82839966 C-100.0493033 322.70412081 -115.72367467 325.20224661 -131.56396484 327.31567383 C-132.68653687 327.48256714 -132.68653687 327.48256714 -133.83178711 327.65283203 C-141.22764431 328.65275695 -148.72154152 328.57440125 -156.17211914 328.61083984 C-157.79590607 328.62230795 -159.41965685 328.64267709 -161.04321289 328.67236328 C-188.38611385 329.16991124 -188.38611385 329.16991124 -198.00146484 321.19067383 C-201.86189815 316.85945597 -201.98975946 314.20022132 -201.88037109 308.52661133 C-200.05362945 289.98856645 -186.53818477 271.45989001 -177.578125 255.54394531 C-173.87771478 248.94988757 -170.3354204 242.27428141 -166.79412842 235.59405518 C-159.60467973 222.03876905 -152.24164315 208.60233444 -144.56396484 195.31567383 C-144.0754303 194.46975677 -144.0754303 194.46975677 -143.57702637 193.60675049 C-135.00948226 178.78025467 -126.33057224 164.04685428 -117.06054688 149.64526367 C-114.88136807 146.25313902 -112.7231846 142.84777113 -110.5625 139.44384766 C-100.05306161 122.89610446 -89.52101209 106.36138348 -78.81396484 89.94067383 C-52.26351091 54.69476234 -52.26351091 54.69476234 -44.01318359 13.84301758 C-44.36145078 12.36349951 -44.7300335 10.88848914 -45.12646484 9.42114258 C-45.62744383 7.01018119 -45.59232772 4.77235501 -45.56396484 2.31567383 C-30.3566011 0.5142591 -15.30872542 -0.02744228 0 0 Z " fill="#FFFEFE" transform="translate(600.56396484375,268.684326171875)"/>
<path d="M0 0 C11.22 0 22.44 0 34 0 C34 1.65 34 3.3 34 5 C27.73 5 21.46 5 15 5 C15 9.95 15 14.9 15 20 C20.28 20 25.56 20 31 20 C31 21.65 31 23.3 31 25 C25.72 25 20.44 25 15 25 C15 31.93 15 38.86 15 46 C21.93 46 28.86 46 36 46 C36 42.7 36 39.4 36 36 C39.1568078 31.54191265 43.41000384 29.48925134 48.25 27.25 C52.40498004 25.52857647 52.40498004 25.52857647 56 23 C56.2500773 20.54190002 56.2500773 20.54190002 56 18 C54.05667668 15.62005632 54.05667668 15.62005632 50.5 15.75 C46.94332332 15.62005632 46.94332332 15.62005632 45 18 C44.83322718 21.58343976 44.83322718 21.58343976 45 25 C42.69 25 40.38 25 38 25 C37.51862464 18.74212034 37.51862464 18.74212034 39.5 15.6875 C45.5005396 11.63713577 52.96039066 11.2537123 60 12 C63.8569594 12.99638118 67.13088664 14.13088664 70 17 C70.31884766 19.79736328 70.31884766 19.79736328 70.4140625 23.3203125 C70.45273437 24.57714844 70.49140625 25.83398438 70.53125 27.12890625 C70.5621875 28.44761719 70.593125 29.76632812 70.625 31.125 C70.66318029 32.46486918 70.70223206 33.80471383 70.7421875 35.14453125 C70.8367203 38.42954619 70.92227156 41.71455138 71 45 C72.98 45.495 72.98 45.495 75 46 C75 47.32 75 48.64 75 50 C68.20304851 51.64774582 62.54547997 51.13729958 56 49 C55.34 49.66 54.68 50.32 54 51 C49.08142859 52.17656474 45.10180012 52.43692074 40.375 50.5625 C39.59125 50.046875 38.8075 49.53125 38 49 C37.505 49.99 37.505 49.99 37 51 C24.79 51 12.58 51 0 51 C0 34.17 0 17.34 0 0 Z " fill="#FF5C61" transform="translate(623,694)"/>
<path d="M0 0 C11.22 0 22.44 0 34 0 C34 1.65 34 3.3 34 5 C27.73 5 21.46 5 15 5 C15 9.95 15 14.9 15 20 C20.28 20 25.56 20 31 20 C31 21.65 31 23.3 31 25 C25.72 25 20.44 25 15 25 C15 31.93 15 38.86 15 46 C21.6 46 28.2 46 35 46 C35 42.7 35 39.4 35 36 C38.1568078 31.54191265 42.41000384 29.48925134 47.25 27.25 C51.40498004 25.52857647 51.40498004 25.52857647 55 23 C55.2500773 20.54190002 55.2500773 20.54190002 55 18 C53.05667668 15.62005632 53.05667668 15.62005632 49.5 15.75 C45.94332332 15.62005632 45.94332332 15.62005632 44 18 C43.83322718 21.58343976 43.83322718 21.58343976 44 25 C41.69 25 39.38 25 37 25 C36.51862464 18.74212034 36.51862464 18.74212034 38.5 15.6875 C44.5005396 11.63713577 51.96039066 11.2537123 59 12 C62.8569594 12.99638118 66.13088664 14.13088664 69 17 C69.31884766 19.79736328 69.31884766 19.79736328 69.4140625 23.3203125 C69.45273437 24.57714844 69.49140625 25.83398438 69.53125 27.12890625 C69.5621875 28.44761719 69.593125 29.76632812 69.625 31.125 C69.66318029 32.46486918 69.70223206 33.80471383 69.7421875 35.14453125 C69.8367203 38.42954619 69.92227156 41.71455138 70 45 C71.98 45.495 71.98 45.495 74 46 C74.495 47.98 74.495 47.98 75 50 C61.3667426 51.51708428 61.3667426 51.51708428 55 49 C54.34 49.66 53.68 50.32 53 51 C47.77072345 52.14766423 42.80264087 52.72149649 38 50 C37.67 50.33 37.34 50.66 37 51 C34.26129758 51.08857875 31.54725017 51.11530707 28.80859375 51.09765625 C28.08224731 51.09664917 27.35590088 51.09564209 26.60754395 51.09460449 C23.88417999 51.08935716 21.16083847 51.075396 18.4375 51.0625 C12.353125 51.041875 6.26875 51.02125 0 51 C0 34.17 0 17.34 0 0 Z " fill="#FF5D62" transform="translate(474,694)"/>
<path d="M0 0 C6.1565625 -0.0928125 6.1565625 -0.0928125 12.4375 -0.1875 C13.71294678 -0.21481201 14.98839355 -0.24212402 16.30249023 -0.27026367 C24.40234085 -0.32899943 31.45742086 0.07352158 37.875 5.375 C44.7572822 13.87664272 44.75107061 22.46885942 44 33 C42.95112973 39.07849227 40.92946936 43.10228004 36 47 C24.58461052 53.6589772 13.91494988 51 0 51 C0 34.17 0 17.34 0 0 Z " fill="#FF5D62" transform="translate(240,694)"/>
<path d="M0 0 C0 3.63 0 7.26 0 11 C1.98 11 3.96 11 6 11 C6 12.32 6 13.64 6 15 C4.02 15 2.04 15 0 15 C0 24.57 0 34.14 0 44 C1.65 43.34 3.3 42.68 5 42 C5 40.35 5 38.7 5 37 C7.97 36.505 7.97 36.505 11 36 C11.433125 37.11375 11.86625 38.2275 12.3125 39.375 C13.69911119 43.17512334 13.69911119 43.17512334 17 45 C19.33199388 45.07905064 21.66832622 45.08798769 24 45 C24.33 43.35 24.66 41.7 25 40 C24.04738281 39.49210938 23.09476563 38.98421875 22.11328125 38.4609375 C20.84599624 37.76627757 19.57908906 37.07092806 18.3125 36.375 C17.68666016 36.04371094 17.06082031 35.71242188 16.41601562 35.37109375 C11.53589265 32.66275325 7.01021451 29.46986723 5.37109375 23.83984375 C5.54227995 18.93586252 6.49312273 16.40668078 10 13 C14.84823218 9.76784521 20.27301763 9.94480017 26 10 C29.72870875 10.75838144 32.22099616 12.22099616 34.9375 14.9375 C36 17 36 17 36 21 C33.03 21.495 33.03 21.495 30 22 C29.525625 20.865625 29.05125 19.73125 28.5625 18.5625 C27.36377917 15.24259834 27.36377917 15.24259834 26 14 C23.66702567 13.95907063 21.33294775 13.95758277 19 14 C18.67 15.65 18.34 17.3 18 19 C19.10859375 19.59167969 20.2171875 20.18335938 21.359375 20.79296875 C22.82322537 21.59057953 24.28675003 22.38878829 25.75 23.1875 C26.47960937 23.57486328 27.20921875 23.96222656 27.9609375 24.36132812 C32.21062947 26.69865871 35.3869597 28.76646959 38 33 C38.92779045 36.85727053 38.33940354 40.19614952 36.8125 43.8125 C33.81599097 47.42897641 30.53244222 49.06833132 26 50 C18.81714442 50.57091089 12.36632129 49.56513992 6 46 C5.34 46.66 4.68 47.32 4 48 C0.29568243 49.42473753 -4.12100218 49.7873571 -8 49 C-10.60058594 47.40795898 -10.60058594 47.40795898 -13 45 C-13.56762695 41.79199219 -13.56762695 41.79199219 -13.48828125 38.046875 C-13.48120651 37.38665344 -13.47413177 36.72643188 -13.46684265 36.04620361 C-13.43894727 33.94629508 -13.37623287 31.84909621 -13.3125 29.75 C-13.28741017 28.3229553 -13.26459817 26.89586862 -13.24414062 25.46875 C-13.1891412 21.97829252 -13.10290912 18.48941089 -13 15 C-14.65 15 -16.3 15 -18 15 C-18 13.68 -18 12.36 -18 11 C-16.35 11 -14.7 11 -13 11 C-13 9.02 -13 7.04 -13 5 C-11.21046815 4.16209211 -9.41830305 3.32980604 -7.625 2.5 C-6.62726562 2.0359375 -5.62953125 1.571875 -4.6015625 1.09375 C-2 0 -2 0 0 0 Z " fill="#FF5B60" transform="translate(563,696)"/>
<path d="M0 0 C0.75667969 0.05220703 1.51335937 0.10441406 2.29296875 0.15820312 C4.11256012 0.28488354 5.93138949 0.42244113 7.75 0.5625 C8.23919922 2.0475 8.23919922 2.0475 8.73828125 3.5625 C9.17960486 4.89586069 9.62101582 6.22919247 10.0625 7.5625 C10.38250977 8.53509766 10.38250977 8.53509766 10.70898438 9.52734375 C12.27606802 14.251984 13.97942911 18.91020815 15.75 23.5625 C16.70899351 20.85439883 17.66721447 18.14602839 18.625 15.4375 C18.89441406 14.67695312 19.16382813 13.91640625 19.44140625 13.1328125 C20.91791649 8.95536889 22.36494964 4.77143943 23.75 0.5625 C25.07 0.5625 26.39 0.5625 27.75 0.5625 C27.18137452 7.49574046 24.72528824 13.64181157 22.3125 20.125 C21.50078803 22.33444663 20.68957398 24.54407627 19.87890625 26.75390625 C19.51869385 27.72529541 19.15848145 28.69668457 18.78735352 29.69750977 C17.72313072 32.63670828 16.72625481 35.59304683 15.75 38.5625 C12.45 38.5625 9.15 38.5625 5.75 38.5625 C5.42386719 37.5725 5.09773438 36.5825 4.76171875 35.5625 C2.10154038 27.42416175 2.10154038 27.42416175 -0.8125 19.375 C-2.77894549 14.15964456 -4.4874212 8.8502364 -6.25 3.5625 C-6.58 15.1125 -6.91 26.6625 -7.25 38.5625 C-11.87 38.5625 -16.49 38.5625 -21.25 38.5625 C-21.25 26.0225 -21.25 13.4825 -21.25 0.5625 C-13.81974609 -0.05668783 -7.28346867 -0.57501068 0 0 Z " fill="#FF5E63" transform="translate(361.25,706.4375)"/>
<path d="M0 0 C11.22 0 22.44 0 34 0 C34 1.65 34 3.3 34 5 C27.73 5 21.46 5 15 5 C15 9.95 15 14.9 15 20 C20.28 20 25.56 20 31 20 C31 21.65 31 23.3 31 25 C25.72 25 20.44 25 15 25 C15 31.93 15 38.86 15 46 C21.93 46 28.86 46 36 46 C36 47.65 36 49.3 36 51 C24.12 51 12.24 51 0 51 C0 34.17 0 17.34 0 0 Z " fill="#FF5E63" transform="translate(623,694)"/>
<path d="M0 0 C3.41391485 2.89665502 5.42906538 6.31595768 6.0625 10.75 C6.0625 13.39 6.0625 16.03 6.0625 18.75 C-0.5375 18.75 -7.1375 18.75 -13.9375 18.75 C-13.669375 20.3175 -13.40125 21.885 -13.125 23.5 C-12.97417969 24.38171875 -12.82335937 25.2634375 -12.66796875 26.171875 C-11.88335752 28.9410911 -10.79154641 30.5759401 -8.9375 32.75 C-6.2975 32.42 -3.6575 32.09 -0.9375 31.75 C-0.2775 28.78 0.3825 25.81 1.0625 22.75 C3.5375 23.74 3.5375 23.74 6.0625 24.75 C5.61085868 29.60514421 4.58199566 32.32562584 1.0625 35.75 C-5.11235067 38.69708782 -11.26873546 38.41751241 -17.6875 36.5625 C-21.68881375 35.08180731 -23.78004085 33.5471281 -25.9375 29.75 C-28.32634668 23.65844098 -29.25309069 16.83188678 -27.21484375 10.5078125 C-24.73608127 5.18901043 -21.56354171 1.09355622 -16.25 -1.625 C-10.620857 -2.68710245 -5.28387159 -2.248456 0 0 Z " fill="#FF5C61" transform="translate(414.9375,708.25)"/>
<path d="M0 0 C3.41391485 2.89665502 5.42906538 6.31595768 6.0625 10.75 C6.0625 13.39 6.0625 16.03 6.0625 18.75 C-0.5375 18.75 -7.1375 18.75 -13.9375 18.75 C-13.669375 20.3175 -13.40125 21.885 -13.125 23.5 C-12.97417969 24.38171875 -12.82335937 25.2634375 -12.66796875 26.171875 C-11.88335752 28.9410911 -10.79154641 30.5759401 -8.9375 32.75 C-6.2975 32.42 -3.6575 32.09 -0.9375 31.75 C-0.2775 28.78 0.3825 25.81 1.0625 22.75 C3.5375 23.74 3.5375 23.74 6.0625 24.75 C5.61085868 29.60514421 4.58199566 32.32562584 1.0625 35.75 C-5.11235067 38.69708782 -11.26873546 38.41751241 -17.6875 36.5625 C-21.68881375 35.08180731 -23.78004085 33.5471281 -25.9375 29.75 C-28.32634668 23.65844098 -29.25309069 16.83188678 -27.21484375 10.5078125 C-24.73608127 5.18901043 -21.56354171 1.09355622 -16.25 -1.625 C-10.620857 -2.68710245 -5.28387159 -2.248456 0 0 Z " fill="#FF5C61" transform="translate(313.9375,708.25)"/>
<path d="M0 0 C1.9375 1.9375 1.9375 1.9375 3 4 C3 5.32 3 6.64 3 8 C1.02 8.33 -0.96 8.66 -3 9 C-3.474375 7.865625 -3.94875 6.73125 -4.4375 5.5625 C-5.63622083 2.24259834 -5.63622083 2.24259834 -7 1 C-9.33297433 0.95907063 -11.66705225 0.95758277 -14 1 C-14.33 2.65 -14.66 4.3 -15 6 C-13.89140625 6.59167969 -12.7828125 7.18335938 -11.640625 7.79296875 C-10.17677463 8.59057953 -8.71324997 9.38878829 -7.25 10.1875 C-6.52039063 10.57486328 -5.79078125 10.96222656 -5.0390625 11.36132812 C-0.78937053 13.69865871 2.3869597 15.76646959 5 20 C5.92779045 23.85727053 5.33940354 27.19614952 3.8125 30.8125 C0.81599097 34.42897641 -2.46755778 36.06833132 -7 37 C-12.91869462 37.47043229 -19.76450483 37.71126304 -24.54296875 33.70703125 C-26.80217512 31.24531898 -27.94960712 29.4636145 -28.3125 26.125 C-28.209375 25.42375 -28.10625 24.7225 -28 24 C-26.02 23.67 -24.04 23.34 -22 23 C-21.566875 24.11375 -21.13375 25.2275 -20.6875 26.375 C-19.30088881 30.17512334 -19.30088881 30.17512334 -16 32 C-13.66800612 32.07905064 -11.33167378 32.08798769 -9 32 C-8.67 30.35 -8.34 28.7 -8 27 C-8.95261719 26.49210938 -9.90523437 25.98421875 -10.88671875 25.4609375 C-12.15400376 24.76627757 -13.42091094 24.07092806 -14.6875 23.375 C-15.31333984 23.04371094 -15.93917969 22.71242188 -16.58398438 22.37109375 C-21.46410735 19.66275325 -25.98978549 16.46986723 -27.62890625 10.83984375 C-27.45772005 5.93586252 -26.50687727 3.40668078 -23 0 C-15.92591918 -4.71605388 -7.2609079 -3.90971964 0 0 Z " fill="#FF5C61" transform="translate(725,709)"/>
<path d="M0 0 C4.95 0 9.9 0 15 0 C18.465 10.395 18.465 10.395 22 21 C24.64 14.07 27.28 7.14 30 0 C31.65 0 33.3 0 35 0 C32.54073952 9.01728843 29.16859384 17.62353136 25.69458008 26.2878418 C25.02084299 27.97683944 24.35486746 29.66895299 23.6965332 31.36401367 C22.73501406 33.83952572 21.7511024 36.30504427 20.76171875 38.76953125 C20.47399094 39.52168411 20.18626312 40.27383698 19.88981628 41.04878235 C17.80446657 46.13765518 15.61663682 48.93967665 11 52 C7.29082388 52 5.0627403 51.78848474 2.0625 49.5625 C1 48 1 48 1 46 C2.65 45.34 4.3 44.68 6 44 C6.33 44.99 6.66 45.98 7 47 C8.65 47 10.3 47 12 47 C14.81460447 37.04312441 10.30245133 28.61857263 6.5625 19.5625 C5.62293427 17.23752596 4.68944154 14.91027089 3.76048279 12.58103943 C3.18363838 11.14011155 2.59964762 9.70201893 2.00770569 8.26722717 C0.82049916 5.34670684 0 3.18565259 0 0 Z " fill="#FF5E63" transform="translate(728,707)"/>
<path d="M0 0 C0 1.32 0 2.64 0 4 C0.66 4 1.32 4 2 4 C2 3.34 2 2.68 2 2 C4.65728125 0.26254687 5.89600355 -0.00831972 9.125 0.25 C12 1 12 1 14 3 C14.23046875 5.05859375 14.23046875 5.05859375 14.1875 7.4375 C14.18105469 8.21996094 14.17460937 9.00242187 14.16796875 9.80859375 C14 12 14 12 13 15 C10.03 15 7.06 15 4 15 C4.33 12.03 4.66 9.06 5 6 C4.01 6.33 3.02 6.66 2 7 C0.65296398 10.33927029 0.79682258 13.95700456 0.68359375 17.515625 C0.64169922 18.76601563 0.59980469 20.01640625 0.55664062 21.3046875 C0.51732422 22.60664062 0.47800781 23.90859375 0.4375 25.25 C0.39431641 26.56742188 0.35113281 27.88484375 0.30664062 29.2421875 C0.20058146 32.49466854 0.09978847 35.74732053 0 39 C-4.62 39 -9.24 39 -14 39 C-14 26.46 -14 13.92 -14 1 C-2 0 -2 0 0 0 Z " fill="#FF5E63" transform="translate(438,706)"/>
<path d="M0 0 C4.29 0 8.58 0 13 0 C13 16.83 13 33.66 13 51 C8.71 51 4.42 51 0 51 C0 34.17 0 17.34 0 0 Z " fill="#FF5A5F" transform="translate(323,694)"/>
<path d="M0 0 C8 0 8 0 10.9375 2.625 C14.5227814 8.49182411 14.18224144 14.68611338 14.1875 21.375 C14.19974609 22.18710937 14.21199219 22.99921875 14.22460938 23.8359375 C14.23960814 30.07542295 13.86396642 36.13235935 10.375 41.5 C8 43 8 43 0 43 C0 28.81 0 14.62 0 0 Z " fill="#FFF7F7" transform="translate(255,698)"/>
<path d="M0 0 C0.33 0 0.66 0 1 0 C0.94199219 1.01320313 0.88398437 2.02640625 0.82421875 3.0703125 C0.42959171 11.00318933 0.42959171 11.00318933 2.6875 18.5 C6.43448889 21.98480891 11.63572839 24.04159051 16.234375 26.19140625 C19 28 19 28 20.015625 30.58984375 C20 33 20 33 18 35 C13.96113129 35.45723042 11.69229628 35.3912979 8.125 33.375 C5.60373916 30.55712024 5.25375209 28.72169726 5 25 C3.02 25.33 1.04 25.66 -1 26 C-0.67 27.98 -0.34 29.96 0 32 C-2.97 32.495 -2.97 32.495 -6 33 C-6 23.43 -6 13.86 -6 4 C-4.02 4 -2.04 4 0 4 C0 2.68 0 1.36 0 0 Z " fill="#FFF4F5" transform="translate(569,707)"/>
<path d="M0 0 C0.33 0 0.66 0 1 0 C1 16.83 1 33.66 1 51 C0.67 51 0.34 51 0 51 C-0.01417969 50.31292969 -0.02835937 49.62585938 -0.04296875 48.91796875 C-0.18718817 46.19339102 -0.39137986 43.6616416 -1 41 C-3.37255115 38.78693049 -3.37255115 38.78693049 -6 38 C-6.2475 39.27875 -6.495 40.5575 -6.75 41.875 C-7.73724195 45.78254506 -7.73724195 45.78254506 -9.8125 47.5 C-12.47619931 48.10884556 -14.28171114 48.47570055 -17 48 C-21.8688402 42.99591424 -22 40.14792973 -22 33 C-15.4 33 -8.8 33 -2 33 C-2 31.35 -2 29.7 -2 28 C-1.67 28 -1.34 28 -1 28 C-0.67 18.76 -0.34 9.52 0 0 Z " fill="#FFEFF0" transform="translate(322,694)"/>
<path d="M0 0 C2.31 0 4.62 0 7 0 C7 10.23 7 20.46 7 31 C6.34 31 5.68 31 5 31 C5 30.34 5 29.68 5 29 C3.35 28.67 1.7 28.34 0 28 C0 18.76 0 9.52 0 0 Z " fill="#FFEEEF" transform="translate(543,711)"/>
<path d="M0 0 C0.08117951 2.41734542 0.14056926 4.83194949 0.1875 7.25 C0.22520508 8.27287109 0.22520508 8.27287109 0.26367188 9.31640625 C0.31137459 12.59199289 0.21085076 14.65348556 -1.51171875 17.484375 C-2.00285156 17.98453125 -2.49398437 18.4846875 -3 19 C-4.9375 18.625 -4.9375 18.625 -7 18 C-8.59671189 14.80657621 -8.37418163 11.47454369 -8 8 C-6.64812936 4.95829106 -3.91239018 0 0 0 Z " fill="#FFEEEF" transform="translate(680,722)"/>
<path d="M0 0 C0.08117951 2.41734542 0.14056926 4.83194949 0.1875 7.25 C0.22520508 8.27287109 0.22520508 8.27287109 0.26367188 9.31640625 C0.31137459 12.59199289 0.21085076 14.65348556 -1.51171875 17.484375 C-2.00285156 17.98453125 -2.49398437 18.4846875 -3 19 C-4.9375 18.625 -4.9375 18.625 -7 18 C-8.59671189 14.80657621 -8.37418163 11.47454369 -8 8 C-6.64812936 4.95829106 -3.91239018 0 0 0 Z " fill="#FFEEEF" transform="translate(530,722)"/>
<path d="M0 0 C0.70125 0.00515625 1.4025 0.0103125 2.125 0.015625 C2.82625 0.01046875 3.5275 0.0053125 4.25 0 C6.125 0.265625 6.125 0.265625 8.125 2.265625 C8.375 5.265625 8.375 5.265625 8.125 8.265625 C6.125 10.265625 6.125 10.265625 4.25 10.53125 C3.54875 10.52609375 2.8475 10.5209375 2.125 10.515625 C1.42375 10.52078125 0.7225 10.5259375 0 10.53125 C-1.875 10.265625 -1.875 10.265625 -3.875 8.265625 C-4.125 5.265625 -4.125 5.265625 -3.875 2.265625 C-1.875 0.265625 -1.875 0.265625 0 0 Z " fill="#FF6266" transform="translate(344.875,691.734375)"/>
<path d="M0 0 C-3.17676953 -0.42356927 -6.3183461 -0.85803393 -9.45703125 -1.51171875 C-22.36039601 -4.17551733 -35.68425459 -3.95105343 -48 1 C-50.8125 1.125 -50.8125 1.125 -53 1 C-53 1.66 -53 2.32 -53 3 C-54.32 2.67 -55.64 2.34 -57 2 C-53.38524423 0.15059007 -49.78925458 -1.54259439 -46 -3 C-45.21625 -3.350625 -44.4325 -3.70125 -43.625 -4.0625 C-31.0096843 -8.56796989 -11.38573298 -7.59048866 0 0 Z " fill="#FFAAAD" transform="translate(221,551)"/>
<path d="M0 0 C1.9375 0.125 1.9375 0.125 4 1 C6.30238787 4.91405938 6.17461992 8.54719212 6 13 C3.03 13 0.06 13 -3 13 C-3.17791204 8.46324303 -3.0461125 5.092225 -1 1 C-0.67 0.67 -0.34 0.34 0 0 Z " fill="#FFF0F0" transform="translate(404,710)"/>
<path d="M0 0 C1.9375 0.125 1.9375 0.125 4 1 C6.30238787 4.91405938 6.17461992 8.54719212 6 13 C3.03 13 0.06 13 -3 13 C-3.17791204 8.46324303 -3.0461125 5.092225 -1 1 C-0.67 0.67 -0.34 0.34 0 0 Z " fill="#FFF0F0" transform="translate(303,710)"/>
<path d="M0 0 C0 0.66 0 1.32 0 2 C-1.32 3.32 -2.64 4.64 -4 6 C0.62 6.66 5.24 7.32 10 8 C10 8.33 10 8.66 10 9 C9.42556152 9.02505615 8.85112305 9.0501123 8.25927734 9.07592773 C5.63100279 9.19269875 3.00301605 9.31505419 0.375 9.4375 C-0.52863281 9.47681641 -1.43226563 9.51613281 -2.36328125 9.55664062 C-6.98216146 9.77578458 -11.45153636 10.1008851 -16 11 C-14.49402323 6.74561563 -11.83252242 5.40579386 -8 3.25 C-6.9275 2.63640625 -5.855 2.0228125 -4.75 1.390625 C-2 0 -2 0 0 0 Z " fill="#FF8589" transform="translate(164,554)"/>
<path d="M0 0 C1.54238266 0.11583111 3.08390272 0.24316572 4.625 0.375 C5.91277344 0.47941406 5.91277344 0.47941406 7.2265625 0.5859375 C10 1 10 1 12.875 2 C16.43672757 3.13975282 19.64630254 3.41394165 23.375 3.625 C24.62023437 3.69976563 25.86546875 3.77453125 27.1484375 3.8515625 C28.08945312 3.90054688 29.03046875 3.94953125 30 4 C29.67 4.99 29.34 5.98 29 7 C23.39 7 17.78 7 12 7 C11.67 6.34 11.34 5.68 11 5 C9.17489003 4.21984379 7.31393324 3.52204594 5.4375 2.875 C4.42558594 2.52179687 3.41367187 2.16859375 2.37109375 1.8046875 C1.19740234 1.40636719 1.19740234 1.40636719 0 1 C0 0.67 0 0.34 0 0 Z " fill="#FF9396" transform="translate(288,668)"/>
<path d="M0 0 C0.66 0.33 1.32 0.66 2 1 C-7.76524457 6.25820862 -17.28648971 8.17728127 -28.3125 8.1875 C-29.02728516 8.19974609 -29.74207031 8.21199219 -30.47851562 8.22460938 C-32.32052524 8.2298177 -34.16208123 8.12280544 -36 8 C-36.66 7.34 -37.32 6.68 -38 6 C-36.43765625 6.06960938 -36.43765625 6.06960938 -34.84375 6.140625 C-23.42117546 6.48700773 -12.79531762 5.29470607 -2.171875 0.8046875 C-1.45515625 0.53914062 -0.7384375 0.27359375 0 0 Z " fill="#FFCDCF" transform="translate(292,629)"/>
<path d="M0 0 C8.58 0 17.16 0 26 0 C26 0.66 26 1.32 26 2 C22.93600622 3.53199689 19.73489095 3.19053239 16.375 3.1875 C15.2921875 3.1884668 15.2921875 3.1884668 14.1875 3.18945312 C9.16681578 3.13960879 4.78944671 2.59648224 0 1 C0 0.67 0 0.34 0 0 Z " fill="#FFC2C3" transform="translate(284,655)"/>
<path d="M0 0 C0.66 0.33 1.32 0.66 2 1 C3.5195764 1.15123831 5.04472502 1.24881693 6.5703125 1.31640625 C7.91416016 1.37924805 7.91416016 1.37924805 9.28515625 1.44335938 C10.22230469 1.48267578 11.15945312 1.52199219 12.125 1.5625 C13.54232422 1.62727539 13.54232422 1.62727539 14.98828125 1.69335938 C17.32537092 1.79959072 19.6625683 1.90163176 22 2 C22 2.33 22 2.66 22 3 C21.42556152 3.02505615 20.85112305 3.0501123 20.25927734 3.07592773 C17.63100279 3.19269875 15.00301605 3.31505419 12.375 3.4375 C11.47136719 3.47681641 10.56773437 3.51613281 9.63671875 3.55664062 C5.01783854 3.77578458 0.54846364 4.1008851 -4 5 C-2.25 1.125 -2.25 1.125 0 0 Z " fill="#FFC7C9" transform="translate(152,560)"/>
<path d="M0 0 C0.66 0.33 1.32 0.66 2 1 C0.61240749 2.61130023 -0.78545623 4.21375841 -2.1875 5.8125 C-2.96480469 6.70582031 -3.74210938 7.59914063 -4.54296875 8.51953125 C-6.89417119 10.8931617 -9.06791184 12.43240047 -12 14 C-10.41332422 10.09714233 -7.86649519 7.66479018 -4.875 4.75 C-3.96492187 3.85796875 -3.05484375 2.9659375 -2.1171875 2.046875 C-1.41851562 1.37140625 -0.71984375 0.6959375 0 0 Z " fill="#FF8083" transform="translate(241,501)"/>
<path d="M0 0 C6.54961832 0.75572519 6.54961832 0.75572519 8.84375 2 C11.66461411 3.30822683 14.15668707 3.4232622 17.25 3.625 C18.32765625 3.69976563 19.4053125 3.77453125 20.515625 3.8515625 C21.33546875 3.90054688 22.1553125 3.94953125 23 4 C23 3.34 23 2.68 23 2 C23.66 2.33 24.32 2.66 25 3 C24.67 3.66 24.34 4.32 24 5 C18.39 5 12.78 5 7 5 C6.67 4.34 6.34 3.68 6 3 C4.02111039 2.27306096 2.02045442 1.60183749 0 1 C0 0.67 0 0.34 0 0 Z " fill="#FFC0C2" transform="translate(293,670)"/>
<path d="M0 0 C0.66 0.33 1.32 0.66 2 1 C2 1.99 2 2.98 2 4 C0.02 4.33 -1.96 4.66 -4 5 C-2.25 1.125 -2.25 1.125 0 0 Z " fill="#FFABAD" transform="translate(152,560)"/>
<path d="M0 0 C0.33 0.66 0.66 1.32 1 2 C0.67 2.99 0.34 3.98 0 5 C0.66 5.33 1.32 5.66 2 6 C0.35 6.33 -1.3 6.66 -3 7 C-2.38722388 4.03824877 -1.74627478 2.61941217 0 0 Z " fill="#FF898D" transform="translate(228,515)"/>
</svg>
